#!OML:ASF X:\für Bonn\!DataBase\2005_08_12_Daniel\c3d\Daniel.ASF
:FULLY-SPECIFIED
:DEGREES
16
root -20.5445 16.3502 -0.242671 315.729 83.2449 320.654
lowerback 22.9678 -1.74784 7.18044
upperback 1.45019 -0.272901 0.14502
thorax -11.3234 -0.428711 -3.87945
lowerneck -4.2452 2.31164 -4.63569
upperneck -9.27665 3.26612 -2.33171
head -2.234 1.92431 0.0150285
rclavicle -2.19906e-015 1.88845e-015
rhumerus -10.3085 35.1234 -100.693
rradius 78.271
rwrist -0.412821
rhand -36.5721 29.9119
rfingers 7.12502
rthumb -9.66184 0.153455
lclavicle -2.19906e-015 1.88845e-015
lhumerus 169.189 199.888 268.754
lradius 91.8215
lwrist 14.0385
lhand -11.2458 -14.055
lfingers 7.12502
lthumb 14.7837 15.3977
rfemur -8.03706 -0.960063 25.6808
rtibia 58.5893
rfoot -23.3926 4.78714
rtoes -8.38086
lfemur -14.8391 0.468569 -13.5118
ltibia 68.4311
lfoot -32.3636 -0.785192
ltoes -14.0521
17
root -20.2281 16.5544 -0.224293 314.586 83.5824 319.415
lowerback 21.4489 -1.74362 7.11039
upperback 0.958367 -0.431102 0.128474
thorax -11.0635 -0.517439 -3.80244
lowerneck -4.14858 2.40242 -4.5281
upperneck -7.3695 3.37741 -2.28813
head -1.6295 1.90564 0.0297904
rclavicle 4.34841e-016 -8.24956e-015
rhumerus -10.152 36.4386 -100.581
rradius 80.7287
rwrist -0.0459279
rhand -35.7495 30.235
rfingers 7.12502
rthumb -8.86804 0.441322
lclavicle 4.34841e-016 -8.24956e-015
lhumerus 169.973 201.335 267.788
lradius 94.0646
lwrist 13.8856
lhand -10.4809 -13.7092
lfingers 7.12502
lthumb 15.5205 15.6879
rfemur -5.79471 -1.00552 25.4853
rtibia 55.5695
rfoot -20.1236 4.18983
rtoes -8.00255
lfemur -12.9704 0.613047 -13.4763
ltibia 66.1164
lfoot -29.7103 -1.3893
ltoes -14.2469
18
root -19.9046 16.7828 -0.205 313.663 83.8734 318.406
lowerback 19.9536 -1.72672 7.02788
upperback 0.472974 -0.568611 0.0969649
thorax -10.7941 -0.59458 -3.74697
lowerneck -4.03445 2.46633 -4.45438
upperneck -5.39441 3.46523 -2.20812
head -1.02532 1.87986 0.0598431
rclavicle -1.43373e-014 1.98785e-016
rhumerus -10.1398 37.627 -100.49
rradius 83.1044
rwrist 0.606341
rhand -34.6846 30.4786
rfingers 7.12502
rthumb -7.84032 0.644016
lclavicle -1.43373e-014 1.98785e-016
lhumerus 170.672 202.868 266.759
lradius 96.1766
lwrist 13.7741
lhand -9.94667 -13.6606
lfingers 7.12502
lthumb 16.035 15.6958
rfemur -3.58906 -0.846227 25.3644
rtibia 52.3472
rfoot -16.1671 3.2062
rtoes -7.7691
lfemur -11.0796 0.716247 -13.4612
ltibia 63.6768
lfoot -26.2893 -1.82945
ltoes -15.3232
19
root -19.5736 17.0426 -0.186452 312.99 84.1205 317.624
lowerback 18.5229 -1.69143 6.9444
upperback -0.032938 -0.668104 0.0716032
thorax -10.5684 -0.654258 -3.69934
lowerneck -3.80835 2.51367 -4.49619
upperneck -3.45182 3.53915 -2.05272
head -0.469112 1.85626 0.128106
rclavicle -1.59525e-014 7.35503e-015
rhumerus -10.1667 38.7216 -100.314
rradius 85.5215
rwrist 1.43816
rhand -33.3404 30.2488
rfingers 7.12502
rthumb -6.5428 0.369907
lclavicle -1.59525e-014 7.35503e-015
lhumerus 171.293 204.487 265.668
lradius 98.192
lwrist 13.8503
lhand -9.53577 -13.9377
lfingers 7.12502
lthumb 16.4306 15.3864
rfemur -1.47858 -0.56017 25.2902
rtibia 48.9663
rfoot -11.5792 1.73184
rtoes -7.72566
lfemur -9.20548 0.672236 -13.5136
ltibia 61.0928
lfoot -21.9715 -2.07912
ltoes -16.606
20
root -19.2253 17.3249 -0.168325 312.966 84.3018 317.417
lowerback 16.9819 -1.62414 6.86087
upperback -0.544731 -0.728139 0.0397157
thorax -10.2717 -0.692062 -3.67341
lowerneck -3.3718 2.57673 -4.5182
upperneck -1.6914 3.62614 -1.95566
head -0.00913105 1.85087 0.172401
rclavicle 1.54679e-015 7.95139e-015
rhumerus -10.3175 39.7719 -100.055
rradius 88.0059
rwrist 2.29439
rhand -31.8797 29.7196
rfingers 7.12502
rthumb -5.13259 -0.198291
lclavicle 1.54679e-015 7.95139e-015
lhumerus 171.807 206.194 264.474
lradius 100.19
lwrist 14.1715
lhand -9.31413 -14.4867
lfingers 7.12502
lthumb 16.644 14.8197
rfemur 0.55651 -0.0481664 25.2844
rtibia 45.496
rfoot -6.5632 -0.226813
rtoes -7.61029
lfemur -7.48488 0.495994 -13.6519
ltibia 58.4773
lfoot -17.04 -2.09283
ltoes -17.297
21
root -18.8683 17.6093 -0.153756 313.411 84.4285 317.62
lowerback 15.3393 -1.54606 6.82779
upperback -1.06083 -0.766174 -0.00662716
thorax -9.91027 -0.718945 -3.70059
lowerneck -2.72626 2.65063 -4.52523
upperneck -0.1345 3.71979 -1.8613
head 0.356557 1.8601 0.210269
rclavicle -2.45821e-014 1.25234e-014
rhumerus -10.6492 40.8379 -99.7282
rradius 90.3931
rwrist 3.03187
rhand -30.4774 29.051
rfingers 7.12502
rthumb -3.77851 -0.89522
lclavicle -2.45821e-014 1.25234e-014
lhumerus 172.128 207.971 263.151
lradius 102.301
lwrist 14.6696
lhand -9.34682 -15.1855
lfingers 7.12502
lthumb 16.6126 14.1235
rfemur 2.47198 0.621943 25.3257
rtibia 42.1056
rfoot -1.22383 -2.36779
rtoes -7.44353
lfemur -6.01182 0.223722 -13.8603
ltibia 55.9816
lfoot -11.6954 -1.91522
ltoes -17.2161
22
root -18.5128 17.8878 -0.14197 314.019 84.506 317.937
lowerback 13.6427 -1.44588 6.84046
upperback -1.54262 -0.765172 -0.054767
thorax -9.46701 -0.723916 -3.76679
lowerneck -2.00529 2.70412 -4.51957
upperneck 1.21135 3.78576 -1.79569
head 0.648853 1.86561 0.233624
rclavicle -3.78933e-015 1.39149e-015
rhumerus -10.9273 41.9481 -99.2555
rradius 92.6215
rwrist 3.4365
rhand -29.2606 28.2565
rfingers 7.12502
rthumb -2.60337 -1.70738
lclavicle -3.78933e-015 1.39149e-015
lhumerus 172.36 209.716 261.89
lradius 104.399
lwrist 15.2542
lhand -9.42901 -15.871
lfingers 7.12502
lthumb 16.5334 13.4446
rfemur 4.13576 1.3573 25.4249
rtibia 38.9773
rfoot 4.34179 -4.5288
rtoes -7.13784
lfemur -4.79501 -0.0906246 -14.0884
ltibia 53.7583
lfoot -6.15301 -1.64323
ltoes -16.2879
23
root -18.1585 18.1638 -0.129406 315.012 84.5574 318.604
lowerback 11.9818 -1.3361 6.8183
upperback -2.01428 -0.746938 -0.0870128
thorax -9.0228 -0.715699 -3.7998
lowerneck -1.02286 2.77132 -4.56358
upperneck 2.1822 3.8519 -1.71848
head 0.781928 1.88492 0.258971
rclavicle 1.34677e-014 -4.57205e-015
rhumerus -11.094 43.2064 -98.6247
rradius 94.7498
rwrist 3.33277
rhand -28.2757 27.4178
rfingers 7.12502
rthumb -1.65218 -2.55559
lclavicle 1.34677e-014 -4.57205e-015
lhumerus 172.216 211.196 260.924
lradius 106.839
lwrist 15.6713
lhand -9.25911 -16.3806
lfingers 7.12502
lthumb 16.697 12.9213
rfemur 5.4187 2.13772 25.5523
rtibia 36.3566
rfoot 9.79686 -6.20002
rtoes -7.38513
lfemur -3.80791 -0.451472 -14.3564
ltibia 51.8902
lfoot -0.738742 -1.35729
ltoes -14.3443
